<svg width="265" height="244" viewBox="0 0 265 244" fill="none" xmlns="http://www.w3.org/2000/svg">
<rect width="265" height="244" rx="26" fill="#D9D9D9"/>
<g style="mix-blend-mode:plus-darker">
<path d="M96.7458 70.766H113.336C116.917 70.766 119.234 71.3453 120.288 72.504C121.446 73.6627 122.026 76.0853 122.026 79.772V175.994C122.026 179.681 121.446 182.103 120.288 183.262C119.234 184.421 116.917 185 113.336 185H96.7458V70.766ZM63.4078 149.766H83.3158C84.7905 149.766 85.6858 149.977 86.0018 150.398C86.3178 150.819 86.4758 151.715 86.4758 153.084V165.408C86.4758 167.093 86.6865 168.305 87.1078 169.042C87.6345 169.674 88.8458 169.99 90.7418 169.99H92.0058V185H84.5798C76.8905 185 71.0445 183.683 67.0418 181.05C63.1445 178.417 61.1958 173.835 61.1958 167.304V153.084C61.1958 150.872 61.9331 149.766 63.4078 149.766ZM115.166 70.766H164.62C166.306 70.766 167.675 71.3453 168.728 72.504C169.782 73.6627 170.308 75.19 170.308 77.086V185H153.718C150.137 185 147.767 184.421 146.608 183.262C145.555 182.103 145.028 179.681 145.028 175.994V90.516H119.748C116.694 90.516 115.166 87.988 115.166 82.932V70.766ZM176.628 70.766H201.908C204.963 70.766 206.49 73.294 206.49 78.35V90.516H176.628V70.766Z" fill="#1B1B1B"/>
</g>
</svg>
